PathFileType	4	(X/Y/Z)	D:\TRACE\spotREDO_2-26-24\spot_baseline_1-platform.trc
DataRate	CameraRate	NumFrames	NumMarkers	Units	OrigDataRate	OrigDataStartFrame	OrigNumFrames
100.00	100.00	      62	5	mm	100.00	6126	      7000
Frame#	Time	Left_Front			Right_Front			Left_Aft			Right_Aft			Post			
		X1	Y1	Z1	X2	Y2	Z2	X3	Y3	Z3	X4	Y4	Z4	X5	Y5	Z5	

6126	61.250	-696.87213	-3.88426	-575.66412	718.24768	4.88847	-490.76614	-768.11334	4.81190	643.59491	801.31073	11.45090	647.83105	4.35441	741.44739	-982.71875	
6127	61.260	-696.85925	-3.88047	-575.67828	718.31726	4.99807	-490.73697	-768.11316	4.83304	643.59448	801.29034	11.40800	647.81952	4.42671	741.47266	-982.75372	
6128	61.270	-696.90265	-3.84368	-575.65033	718.27521	4.96841	-490.71600	-768.04059	4.95620	643.67432	801.31665	11.44814	647.81842	4.40086	741.46881	-982.80139	
6129	61.280	-696.86444	-3.90106	-575.68042	718.21368	4.92032	-490.75458	-768.12463	4.80387	643.58484	801.18579	11.36881	647.80542	4.44034	741.44122	-982.83527	
6130	61.290	-696.90979	-3.91134	-575.66199	718.21356	4.91030	-490.71790	-768.11450	4.76294	643.60168	801.23456	11.39735	647.83032	4.41953	741.43262	-982.88483	
6131	61.300	-696.87982	-3.87332	-575.64264	718.22156	4.87081	-490.75851	-768.15222	4.76890	643.57904	801.37256	11.46810	647.83807	4.50497	741.39392	-982.89581	
6132	61.310	-696.89807	-3.85968	-575.64093	718.13379	5.15195	-490.91379	-768.16583	4.80979	643.59839	801.27490	11.08764	647.53711	4.45327	741.44342	-982.82147	
6133	61.320	-696.88562	-3.87183	-575.64136	718.28760	4.98685	-490.76349	-768.11389	4.92360	643.61346	801.32672	10.60813	647.42163	4.51024	741.40338	-982.81390	
6134	61.330	-696.94434	-3.89658	-575.63300	718.21783	4.95456	-490.77182	-768.16528	4.86868	643.58740	801.20880	11.50834	647.83759	4.36190	741.41260	-982.72552	
6135	61.340	-696.86206	-3.96737	-575.70813	718.22284	4.90956	-490.80322	-768.07690	4.89594	643.60974	801.26117	11.45732	647.80841	4.35499	741.29358	-982.76349	
6136	61.350	-696.88934	-3.90716	-575.67426	718.02972	5.06331	-490.95132	-768.08075	4.88114	643.62372	801.28058	11.19335	647.52142	4.35327	741.37885	-982.77533	
6137	61.360	-696.84784	-3.89951	-575.71375	718.24841	4.82184	-490.79987	-768.11108	4.76894	643.56195	801.31793	11.00240	647.41046	4.43133	741.39886	-982.83276	
6138	61.370	-696.91119	-3.90253	-575.68799	718.11047	5.21025	-490.93173	-768.10828	4.69131	643.58154	801.34662	10.95546	647.46198	4.51502	741.29358	-982.96320	
6139	61.380	-696.90601	-3.87559	-575.67444	718.22577	4.97060	-490.74454	-768.14429	4.83226	643.57739	801.35297	10.92956	647.43469	4.55117	741.30273	-983.01825	
6140	61.390	-696.90521	-3.92337	-575.66980	718.07593	5.06907	-490.94299	-768.12726	4.85267	643.61035	801.16895	11.31982	647.80481	4.46423	741.34583	-983.08374	
6141	61.400	-696.92285	-3.86551	-575.68134	718.21234	4.91573	-490.78693	-768.07434	4.93328	643.66144	801.27417	11.39349	647.78796	4.44200	741.37146	-983.12207	
6142	61.410	-696.96118	-3.79927	-575.67163	718.06116	5.16472	-490.98627	-768.11414	4.81009	643.60944	801.27100	10.99109	647.44720	4.51968	741.37848	-983.05365	
6143	61.420	-696.96576	-3.82184	-575.67554	718.15369	5.20141	-490.92181	-768.12421	4.74474	643.57190	801.23596	11.02487	647.45520	4.55562	741.34863	-983.06079	
6144	61.430	-696.97217	-3.83409	-575.66547	718.06390	5.15969	-490.96118	-768.13751	4.84554	643.59656	801.17950	10.86910	647.40527	4.44752	741.37549	-982.91644	
6145	61.440	-696.93994	-3.89729	-575.66449	718.18054	4.88285	-490.80133	-768.15582	4.81451	643.61633	801.25525	10.89933	647.42401	4.35470	741.41241	-982.77893	
6146	61.450	-696.91583	-3.93069	-575.63959	718.20471	4.85773	-490.80508	-768.10638	4.85195	643.61023	801.24847	11.35754	647.78491	4.38065	741.38312	-982.69775	
6147	61.460	-696.90186	-3.94339	-575.66656	718.09760	5.09065	-490.92682	-768.08765	4.84391	643.58710	801.33789	11.14139	647.50055	4.39398	741.32501	-982.68085	
6148	61.470	-696.92432	-3.92016	-575.65857	718.23065	4.87054	-490.78284	-768.09570	4.86866	643.60596	801.38641	11.08341	647.45624	4.41892	741.32886	-982.73193	
6149	61.480	-696.94122	-3.86861	-575.67456	718.18280	4.90469	-490.79889	-768.10052	4.90995	643.61646	801.31946	11.13988	647.49780	4.39723	741.41180	-982.74860	
6150	61.490	-696.95697	-3.85828	-575.67383	718.08051	5.10230	-490.92419	-768.13269	4.88624	643.62463	801.28241	11.04041	647.44165	4.42074	741.39606	-982.92145	
6151	61.500	-696.94946	-3.82489	-575.64893	718.22290	4.98905	-490.76651	-768.14362	4.80762	643.57892	801.30627	11.01617	647.46185	4.50244	741.36627	-983.01117	
6152	61.510	-696.95428	-3.81813	-575.66010	718.12140	5.15006	-490.93701	-768.09631	4.81913	643.62061	801.31049	11.05157	647.54401	4.50950	741.36420	-983.05597	
6153	61.520	-696.90338	-3.83014	-575.64972	718.24139	4.92323	-490.79877	-768.09973	4.82024	643.60333	801.26794	10.92761	647.49591	4.55741	741.32001	-983.07825	
6154	61.530	-696.92249	-3.85490	-575.67853	718.25305	4.95440	-490.75586	-768.08917	4.84585	643.61420	801.25629	10.88844	647.43896	4.49529	741.32629	-983.04047	
6155	61.540	-696.89398	-3.91392	-575.67407	718.25012	4.89305	-490.77460	-768.10498	4.81583	643.58875	801.17822	11.02125	647.46527	4.50272	741.33264	-983.02222	
6156	61.550	-696.89197	-3.90674	-575.69073	718.24518	4.88238	-490.75690	-768.13306	4.83431	643.57593	801.26715	11.08566	647.47742	4.45098	741.31055	-982.90485	
6157	61.560	-696.86420	-3.87751	-575.69305	718.26733	4.91727	-490.80090	-768.13446	4.83569	643.59894	801.25012	11.37906	647.77435	4.41568	741.33521	-982.85602	
6158	61.570	-696.84723	-3.92434	-575.69666	718.07880	5.12799	-490.97931	-768.08203	4.81996	643.56036	801.23572	11.08524	647.43048	4.45723	741.33020	-982.80164	
6159	61.580	-696.89612	-3.86146	-575.67017	718.19580	4.87663	-490.78384	-768.13806	4.83697	643.55981	801.37396	11.09077	647.45972	4.39136	741.34363	-982.77289	
6160	61.590	-696.91840	-3.84317	-575.65186	718.07672	5.13325	-490.93298	-768.13501	4.83387	643.60370	801.36908	11.00610	647.46936	4.43868	741.39056	-982.83990	
6161	61.600	-696.86816	-3.89205	-575.68549	718.22162	4.95120	-490.81113	-768.10645	4.82511	643.61292	801.19330	10.97419	647.47021	4.46928	741.39954	-982.88733	
6162	61.610	-696.90137	-3.86234	-575.65833	718.22168	4.94157	-490.76077	-768.12921	4.82894	643.61688	801.35736	11.06504	647.49158	4.46560	741.39648	-982.97125	
6163	61.620	-696.87170	-3.86806	-575.62457	718.11884	5.20192	-490.92740	-768.09814	4.82910	643.59332	801.27875	10.95572	647.52966	4.48879	741.34827	-983.04089	
6164	61.630	-696.89172	-3.84932	-575.68579	718.07867	5.13440	-490.96802	-768.11963	4.85265	643.62115	801.35803	11.05974	647.53253	4.48670	741.38898	-982.99371	
6165	61.640	-696.89417	-3.86519	-575.67230	718.23956	4.96875	-490.76657	-768.10632	4.83718	643.58722	801.31323	10.97520	647.44495	4.47882	741.36066	-982.95361	
6166	61.650	-696.89270	-3.87403	-575.65247	718.19550	4.89505	-490.76385	-768.16882	4.82186	643.56134	801.23853	11.08612	647.51208	4.39865	741.33527	-982.83197	
6167	61.660	-696.89752	-3.93143	-575.65601	718.04822	5.10299	-490.97137	-768.09833	4.84447	643.60406	801.25629	11.39319	647.83197	4.44144	741.30011	-982.79816	
6168	61.670	-696.91174	-3.96186	-575.65985	718.20221	4.89736	-490.75253	-768.13794	4.83068	643.59131	801.29584	11.61541	647.81384	4.40934	741.28082	-982.80029	
6169	61.680	-696.85931	-3.87935	-575.67084	718.21899	5.01422	-490.79297	-768.07391	4.91997	643.61572	801.24719	11.57917	647.80084	4.37677	741.38727	-982.78424	
6170	61.690	-696.84595	-3.88534	-575.68079	718.27588	4.89167	-490.77966	-768.07550	4.71673	643.55878	801.39374	10.79110	647.41052	4.47502	741.42450	-982.88898	
6171	61.700	-696.90277	-3.86734	-575.68085	718.22815	4.88979	-490.77966	-768.14557	4.73525	643.53131	801.27332	11.03659	647.50629	4.53145	741.31506	-982.95728	
6172	61.710	-696.86310	-3.88180	-575.66809	718.25452	4.92508	-490.77469	-768.17035	4.72074	643.52972	801.14972	11.30887	647.78387	4.51176	741.27069	-983.00793	
6173	61.720	-696.88580	-3.90222	-575.66339	718.21600	4.78153	-490.77130	-768.07178	4.83395	643.60388	801.24878	11.07999	647.54572	4.43592	741.36853	-983.00201	
6174	61.730	-696.89490	-3.85907	-575.68378	718.20728	4.90828	-490.78131	-768.09229	4.82385	643.62018	801.20410	10.99469	647.48401	4.40747	741.39392	-983.00140	
6175	61.740	-696.85431	-3.85349	-575.65173	718.26227	4.98553	-490.75497	-768.12891	4.79045	643.57770	801.32306	11.19172	647.57617	4.55477	741.34460	-983.03949	
6176	61.750	-696.91907	-3.86631	-575.66449	718.13672	5.18101	-490.90948	-768.11841	4.76721	643.54358	801.30676	11.12821	647.47852	4.59419	741.35065	-982.93164	
6177	61.760	-696.87878	-3.88220	-575.66888	718.21338	4.86207	-490.78125	-768.14313	4.83381	643.59338	801.21576	10.93676	647.45673	4.45110	741.34540	-982.94684	
6178	61.770	-696.90698	-3.89346	-575.68488	718.21771	4.82604	-490.76779	-768.08905	4.82234	643.61322	801.15173	11.31441	647.81049	4.32922	741.44080	-982.79749	
6179	61.780	-696.91095	-3.86882	-575.69641	718.16528	4.82677	-490.78036	-768.11462	4.78806	643.58118	801.30035	11.14459	647.51227	4.37814	741.41626	-982.77069	
6180	61.790	-696.89246	-3.88293	-575.70410	718.21527	4.87528	-490.79309	-768.15454	4.79658	643.56580	801.28510	11.17010	647.51093	4.43189	741.38293	-982.75464	
6181	61.800	-696.88403	-3.84319	-575.65021	718.24133	4.96585	-490.74728	-768.12811	4.82213	643.58600	801.27643	11.38754	647.80719	4.41065	741.42273	-982.73853	
6182	61.810	-696.87946	-3.86758	-575.65820	718.26849	4.90841	-490.73071	-768.13281	4.82419	643.57141	801.28705	11.02086	647.46271	4.43669	741.42297	-982.76904	
6183	61.820	-696.89020	-3.89517	-575.65765	718.19366	4.89939	-490.79501	-768.10779	4.83978	643.62677	801.21863	11.04298	647.53137	4.34181	741.40070	-982.80896	
6184	61.830	-696.87384	-3.88193	-575.66937	718.22882	4.90916	-490.81848	-768.16241	4.74661	643.58038	801.26172	11.10121	647.50012	4.43423	741.33521	-982.92883	
6185	61.840	-696.87433	-3.85231	-575.66620	718.09344	5.08009	-490.93011	-768.14313	4.74010	643.56689	801.26495	11.12518	647.55432	4.52004	741.34070	-982.95673	
6186	61.850	-696.85565	-3.88390	-575.69196	718.12463	5.08640	-490.96335	-768.12085	4.83834	643.60718	801.24725	11.11433	647.49731	4.50183	741.37506	-983.00458	
6187	61.860	-696.86951	-3.85131	-575.68427	718.27026	4.93363	-490.73682	-768.12457	4.85978	643.60913	801.26245	11.35897	647.80890	4.50256	741.38129	-983.01965	
